<?xml version="1.0" standalone="no"?>
<!DOCTYPE svg PUBLIC "-//W3C//DTD SVG 20010904//EN"
 "http://www.w3.org/TR/2001/REC-SVG-20010904/DTD/svg10.dtd">
<svg version="1.0" xmlns="http://www.w3.org/2000/svg"
 width="1536.000000pt" height="1024.000000pt" viewBox="0 0 1536.000000 1024.000000"
 preserveAspectRatio="xMidYMid meet">

<g transform="translate(0.000000,1024.000000) scale(0.100000,-0.100000)"
fill="#000000" stroke="none">
<path d="M4210 7619 c-122 -18 -254 -98 -321 -195 -36 -52 -74 -151 -83 -216
l-7 -48 -195 0 c-194 0 -195 0 -219 -25 -14 -13 -25 -36 -25 -50 l0 -25 -208
0 c-152 0 -223 -4 -265 -15 -63 -16 -110 -42 -101 -56 3 -5 -1 -6 -9 -3 -18 7
-101 -76 -127 -127 -52 -100 -50 -43 -50 -1629 0 -957 4 -1490 11 -1519 25
-109 111 -221 207 -270 103 -53 53 -51 1488 -51 824 0 1351 4 1383 10 100 19
217 95 265 173 50 81 48 0 46 1645 -1 1258 -3 1540 -15 1577 -30 102 -109 186
-222 238 -44 20 -66 22 -265 25 l-218 4 0 28 c0 19 -9 36 -26 49 -25 20 -39
21 -228 21 l-202 0 -11 71 c-43 273 -294 434 -603 388z m27 -15 c-3 -3 -12 -4
-19 -1 -8 3 -5 6 6 6 11 1 17 -2 13 -5z m-287 -138 c0 -2 -8 -10 -17 -17 -16
-13 -17 -12 -4 4 13 16 21 21 21 13z m751 -13 c13 -16 12 -17 -3 -4 -10 7 -18
15 -18 17 0 8 8 3 21 -13z m-287 -75 c-2 -4 4 -9 13 -12 25 -8 67 -47 82 -74
7 -12 15 -20 20 -18 4 3 7 -3 7 -12 0 -55 5 -82 14 -77 6 3 7 -1 4 -9 -5 -14
-38 -16 -240 -16 -267 0 -251 -7 -214 93 37 99 105 138 236 134 45 -1 80 -5
78 -9z m-846 -235 c-10 -2 -26 -2 -35 0 -10 3 -2 5 17 5 19 0 27 -2 18 -5z
m219 1 c-3 -3 -12 -4 -19 -1 -8 3 -5 6 6 6 11 1 17 -2 13 -5z m720 0 c-3 -3
-12 -4 -19 -1 -8 3 -5 6 6 6 11 1 17 -2 13 -5z m581 -1 c-10 -2 -26 -2 -35 0
-10 3 -2 5 17 5 19 0 27 -2 18 -5z m85 0 c-7 -2 -19 -2 -25 0 -7 3 -2 5 12 5
14 0 19 -2 13 -5z m-1763 -7 c0 -2 -8 -10 -17 -17 -16 -13 -17 -12 -4 4 13 16
21 21 21 13z m-50 -429 c0 -110 2 -126 20 -145 22 -23 46 -31 34 -10 -4 7 -3
8 5 4 6 -4 9 -12 6 -17 -4 -5 343 -9 899 -9 l905 0 28 24 c28 24 28 26 31 150
l4 126 171 0 c147 0 178 -3 214 -19 23 -11 46 -29 53 -40 6 -12 15 -19 20 -16
6 4 10 -581 10 -1500 0 -1648 4 -1540 -59 -1600 l-32 -30 -1357 0 -1357 0 -34
24 c-18 13 -42 42 -52 65 -18 39 -19 99 -19 1521 0 1447 0 1481 19 1517 11 19
17 39 13 44 -4 4 -2 4 4 1 6 -4 28 3 50 13 34 18 59 20 231 20 l193 0 0 -123z
m2607 91 c-3 -8 -6 -5 -6 6 -1 11 2 17 5 13 3 -3 4 -12 1 -19z m20 -2301 c-1
-408 -2 -74 -2 743 0 817 1 1151 2 742 2 -408 2 -1076 0 -1485z m-2120 2047
c-3 -3 -12 -4 -19 -1 -8 3 -5 6 6 6 11 1 17 -2 13 -5z m1910 -216 c-3 -7 -5
-2 -5 12 0 14 2 19 5 13 2 -7 2 -19 0 -25z m-3160 -75 c-3 -10 -5 -2 -5 17 0
19 2 27 5 18 2 -10 2 -26 0 -35z m3160 -5 c-3 -8 -6 -5 -6 6 -1 11 2 17 5 13
3 -3 4 -12 1 -19z m-3160 -1120 c-3 -8 -6 -5 -6 6 -1 11 2 17 5 13 3 -3 4 -12
1 -19z m3160 -95 c-3 -10 -5 -4 -5 12 0 17 2 24 5 18 2 -7 2 -21 0 -30z m0
-55 c-3 -8 -6 -5 -6 6 -1 11 2 17 5 13 3 -3 4 -12 1 -19z m0 -725 c-3 -10 -5
-4 -5 12 0 17 2 24 5 18 2 -7 2 -21 0 -30z m0 -165 c-3 -7 -5 -2 -5 12 0 14 2
19 5 13 2 -7 2 -19 0 -25z m0 -90 c-3 -8 -6 -5 -6 6 -1 11 2 17 5 13 3 -3 4
-12 1 -19z m0 -85 c-3 -10 -5 -2 -5 17 0 19 2 27 5 18 2 -10 2 -26 0 -35z
m156 -348 c-3 -9 -8 -14 -10 -11 -3 3 -2 9 2 15 9 16 15 13 8 -4z m-236 -151
c-3 -3 -12 -4 -19 -1 -8 3 -5 6 6 6 11 1 17 -2 13 -5z"/>
<path d="M3500 6213 c-14 -2 -38 -9 -53 -15 -21 -8 -25 -13 -15 -20 9 -6 6 -7
-9 -3 -17 4 -32 -4 -66 -37 -81 -78 -78 -34 -75 -1024 3 -978 -2 -907 81 -992
73 -75 38 -72 950 -72 789 0 898 4 882 31 -3 4 0 11 6 15 8 4 9 3 5 -4 -4 -7
-2 -12 3 -12 19 0 92 73 114 114 l22 41 3 870 c2 613 0 885 -8 922 -14 64 -70
131 -137 164 l-48 24 -815 1 c-448 1 -826 0 -840 -3z m-140 -97 c0 -2 -8 -10
-17 -17 -16 -13 -17 -12 -4 4 13 16 21 21 21 13z m1967 -108 c-3 -8 -6 -5 -6
6 -1 11 2 17 5 13 3 -3 4 -12 1 -19z m-241 -32 l34 -34 0 -812 0 -812 -34 -34
-34 -34 -741 2 -741 3 -27 28 -28 27 -3 817 c-3 887 -5 850 51 873 12 5 352 9
756 9 l733 1 34 -34z m251 -38 c-3 -8 -6 -5 -6 6 -1 11 2 17 5 13 3 -3 4 -12
1 -19z m-200 -35 c-3 -10 -5 -4 -5 12 0 17 2 24 5 18 2 -7 2 -21 0 -30z m0
-75 c-2 -13 -4 -5 -4 17 -1 22 1 32 4 23 2 -10 2 -28 0 -40z m0 -80 c-2 -13
-4 -5 -4 17 -1 22 1 32 4 23 2 -10 2 -28 0 -40z m200 -50 c-2 -13 -4 -3 -4 22
0 25 2 35 4 23 2 -13 2 -33 0 -45z m-200 -330 c-1 -68 -3 -15 -3 117 0 132 2
187 3 123 2 -64 2 -172 0 -240z m-1840 320 c-3 -8 -6 -5 -6 6 -1 11 2 17 5 13
3 -3 4 -12 1 -19z m2040 -150 c-3 -8 -6 -5 -6 6 -1 11 2 17 5 13 3 -3 4 -12 1
-19z m0 -165 c-3 -10 -5 -4 -5 12 0 17 2 24 5 18 2 -7 2 -21 0 -30z m-2040
-160 c-2 -16 -4 -3 -4 27 0 30 2 43 4 28 2 -16 2 -40 0 -55z m2040 10 c-3 -10
-5 -4 -5 12 0 17 2 24 5 18 2 -7 2 -21 0 -30z m-200 -155 c-2 -35 -3 -9 -3 57
0 66 1 94 3 63 2 -32 2 -86 0 -120z m-1840 60 c-3 -8 -6 -5 -6 6 -1 11 2 17 5
13 3 -3 4 -12 1 -19z m0 -80 c-3 -7 -5 -2 -5 12 0 14 2 19 5 13 2 -7 2 -19 0
-25z m2040 10 c-3 -8 -6 -5 -6 6 -1 11 2 17 5 13 3 -3 4 -12 1 -19z m-200 -80
c-3 -8 -6 -5 -6 6 -1 11 2 17 5 13 3 -3 4 -12 1 -19z m0 -151 c-2 -23 -3 -1
-3 48 0 50 1 68 3 42 2 -26 2 -67 0 -90z m0 -114 c-2 -16 -4 -5 -4 22 0 28 2
40 4 28 2 -13 2 -35 0 -50z m0 -90 c-3 -10 -5 -2 -5 17 0 19 2 27 5 18 2 -10
2 -26 0 -35z m200 -50 c-3 -10 -5 -2 -5 17 0 19 2 27 5 18 2 -10 2 -26 0 -35z
m-200 -125 c-2 -29 -3 -6 -3 52 0 58 1 81 3 53 2 -29 2 -77 0 -105z m200 -30
c-3 -8 -6 -5 -6 6 -1 11 2 17 5 13 3 -3 4 -12 1 -19z m-200 -60 c-3 -7 -5 -2
-5 12 0 14 2 19 5 13 2 -7 2 -19 0 -25z m200 -20 c-3 -8 -6 -5 -6 6 -1 11 2
17 5 13 3 -3 4 -12 1 -19z m-2003 -144 c3 -8 2 -12 -4 -9 -6 3 -10 10 -10 16
0 14 7 11 14 -7z m459 -131 c-7 -2 -19 -2 -25 0 -7 3 -2 5 12 5 14 0 19 -2 13
-5z m324 1 c-3 -3 -12 -4 -19 -1 -8 3 -5 6 6 6 11 1 17 -2 13 -5z m421 -1
c-10 -2 -28 -2 -40 0 -13 2 -5 4 17 4 22 1 32 -1 23 -4z"/>
<path d="M4640 5070 c0 -347 0 -633 0 -637 0 -5 61 -9 135 -11 l135 -3 0 638
0 638 -135 2 -135 2 0 -629z m257 543 c-3 -10 -5 -4 -5 12 0 17 2 24 5 18 2
-7 2 -21 0 -30z m-240 -70 c-3 -10 -5 -2 -5 17 0 19 2 27 5 18 2 -10 2 -26 0
-35z m0 -160 c-3 -10 -5 -2 -5 17 0 19 2 27 5 18 2 -10 2 -26 0 -35z m0 -225
c-2 -24 -4 -5 -4 42 0 47 2 66 4 43 2 -24 2 -62 0 -85z m240 -25 c-3 -10 -5
-4 -5 12 0 17 2 24 5 18 2 -7 2 -21 0 -30z m-240 -70 c-3 -10 -5 -4 -5 12 0
17 2 24 5 18 2 -7 2 -21 0 -30z m0 -80 c-3 -10 -5 -2 -5 17 0 19 2 27 5 18 2
-10 2 -26 0 -35z m0 -85 c-2 -13 -4 -3 -4 22 0 25 2 35 4 23 2 -13 2 -33 0
-45z m0 -75 c-3 -10 -5 -2 -5 17 0 19 2 27 5 18 2 -10 2 -26 0 -35z m0 -105
c-2 -18 -4 -6 -4 27 0 33 2 48 4 33 2 -15 2 -42 0 -60z m0 -60 c-3 -8 -6 -5
-6 6 -1 11 2 17 5 13 3 -3 4 -12 1 -19z m240 -120 c-3 -8 -6 -5 -6 6 -1 11 2
17 5 13 3 -3 4 -12 1 -19z m-240 -40 c-3 -8 -6 -5 -6 6 -1 11 2 17 5 13 3 -3
4 -12 1 -19z m240 -10 c-3 -7 -5 -2 -5 12 0 14 2 19 5 13 2 -7 2 -19 0 -25z
m-164 -55 c-7 -2 -19 -2 -25 0 -7 3 -2 5 12 5 14 0 19 -2 13 -5z m95 0 c-10
-2 -26 -2 -35 0 -10 3 -2 5 17 5 19 0 27 -2 18 -5z"/>
<path d="M4160 4825 l0 -406 143 3 142 3 1 403 1 402 -143 0 -144 0 0 -405z
m80 391 c0 -2 -16 -6 -35 -8 -19 -2 -35 0 -35 4 0 4 16 8 35 8 19 0 35 -2 35
-4z m-63 -328 c-3 -7 -5 -2 -5 12 0 14 2 19 5 13 2 -7 2 -19 0 -25z m0 -320
c-3 -8 -6 -5 -6 6 -1 11 2 17 5 13 3 -3 4 -12 1 -19z m0 -130 c-3 -7 -5 -2 -5
12 0 14 2 19 5 13 2 -7 2 -19 0 -25z m70 -4 c-3 -3 -12 -4 -19 -1 -8 3 -5 6 6
6 11 1 17 -2 13 -5z"/>
<path d="M3700 4938 c0 -2 -2 -119 -3 -261 l-2 -257 148 0 147 0 0 260 0 260
-145 0 c-80 0 -145 -1 -145 -2z m277 -80 c-3 -7 -5 -2 -5 12 0 14 2 19 5 13 2
-7 2 -19 0 -25z m0 -424 c-3 -3 -12 -4 -19 -1 -8 3 -5 6 6 6 11 1 17 -2 13 -5z"/>
<path d="M6950 6615 c-124 -35 -204 -94 -253 -189 -29 -55 -32 -69 -32 -151 0
-109 25 -175 87 -231 72 -65 124 -82 427 -138 104 -20 149 -41 178 -85 53 -78
16 -174 -87 -226 -45 -23 -207 -32 -269 -15 -63 17 -121 74 -128 128 l-6 42
-123 0 -124 0 0 -31 c0 -51 21 -123 32 -107 7 9 8 8 4 -6 -8 -24 33 -94 79
-135 89 -78 201 -111 376 -111 202 0 319 41 415 142 71 75 97 146 98 263 1 76
-3 98 -25 145 -62 133 -148 179 -439 236 -198 38 -250 71 -250 158 0 43 32 83
84 107 32 14 62 18 136 16 124 -3 179 -27 210 -93 l22 -44 120 0 120 0 -7 43
c-14 84 -83 204 -112 193 -8 -3 -11 -1 -8 4 7 12 -58 53 -121 75 -70 25 -327
31 -404 10z m203 -2 c-7 -2 -19 -2 -25 0 -7 3 -2 5 12 5 14 0 19 -2 13 -5z
m-476 -370 c-2 -16 -4 -5 -4 22 0 28 2 40 4 28 2 -13 2 -35 0 -50z m68 -163
c10 -11 16 -20 13 -20 -3 0 -13 9 -23 20 -10 11 -16 20 -13 20 3 0 13 -9 23
-20z m862 -252 c-3 -8 -6 -5 -6 6 -1 11 2 17 5 13 3 -3 4 -12 1 -19z m-764
-95 c-7 -2 -21 -2 -30 0 -10 3 -4 5 12 5 17 0 24 -2 18 -5z m384 -359 c-3 -3
-12 -4 -19 -1 -8 3 -5 6 6 6 11 1 17 -2 13 -5z"/>
<path d="M8028 6523 c-96 -263 -118 -331 -112 -349 4 -13 3 -15 -3 -7 -6 9
-12 3 -20 -20 -7 -17 -53 -147 -104 -287 -50 -140 -109 -304 -130 -363 l-39
-108 132 3 131 3 47 140 47 140 234 3 234 2 48 -145 48 -145 134 0 134 0 -24
68 c-13 37 -80 222 -150 412 -70 190 -153 419 -186 510 -33 91 -66 181 -73
200 l-14 35 -149 3 -149 3 -36 -98z m352 12 c0 -5 -5 -3 -10 5 -5 8 -10 20
-10 25 0 6 5 3 10 -5 5 -8 10 -19 10 -25z m-31 -548 c18 -53 37 -95 42 -92 5
4 6 -1 3 -9 -5 -14 -32 -16 -181 -16 -146 0 -174 2 -170 14 3 8 40 121 82 252
43 132 80 243 83 249 3 5 29 -60 57 -145 28 -85 66 -199 84 -253z m151 218 c0
-5 -5 -3 -10 5 -5 8 -10 20 -10 25 0 6 5 3 10 -5 5 -8 10 -19 10 -25z m49
-140 c0 -5 -4 -3 -9 5 -5 8 -9 22 -9 30 0 16 17 -16 18 -35z m98 -277 c-3 -8
-6 -5 -6 6 -1 11 2 17 5 13 3 -3 4 -12 1 -19z m-776 -381 c-10 -9 -11 -8 -5 6
3 10 9 15 12 12 3 -3 0 -11 -7 -18z m737 -4 c-10 -2 -28 -2 -40 0 -13 2 -5 4
17 4 22 1 32 -1 23 -4z"/>
<path d="M8680 6515 l0 -105 170 0 170 0 0 -510 0 -510 115 0 115 0 0 510 0
510 190 0 190 0 0 105 0 105 -475 0 -475 0 0 -105z m40 -91 c0 -2 -7 -4 -15
-4 -8 0 -15 4 -15 10 0 5 7 7 15 4 8 -4 15 -8 15 -10z m517 -81 c-3 -10 -5 -2
-5 17 0 19 2 27 5 18 2 -10 2 -26 0 -35z"/>
<path d="M7180 4766 c0 -184 -4 -200 -45 -170 -10 8 -14 14 -9 14 6 0 15 -4
22 -10 7 -5 1 2 -12 17 -17 18 -35 26 -56 26 -17 0 -26 3 -20 7 32 20 -147 28
-212 10 -55 -16 -128 -70 -165 -124 -55 -81 -76 -168 -71 -299 4 -95 8 -121
32 -172 30 -65 54 -97 67 -89 5 3 6 -1 3 -9 -7 -18 61 -64 122 -83 71 -21 233
-17 219 6 -3 5 3 6 13 3 11 -3 37 10 65 31 26 20 49 36 52 36 3 0 5 -16 5 -35
l0 -35 96 0 c88 0 95 1 88 18 -5 9 -10 245 -12 525 l-3 507 -90 0 -89 0 0
-174z m167 -499 c-1 -122 -2 -22 -2 223 0 245 1 345 2 222 2 -122 2 -322 0
-445z m-320 387 c-3 -3 -12 -4 -19 -1 -8 3 -5 6 6 6 11 1 17 -2 13 -5z m47
-164 c22 -10 43 -17 48 -14 5 3 7 2 6 -3 -1 -4 8 -29 20 -55 32 -64 40 -175
19 -249 -35 -118 -150 -171 -264 -120 -23 11 -43 17 -46 15 -2 -3 -10 3 -18
13 -9 11 -10 14 -1 9 17 -10 15 -3 -10 41 -20 32 -23 52 -23 133 0 79 4 103
23 142 47 94 157 134 246 88z m-437 -112 c-3 -8 -6 -5 -6 6 -1 11 2 17 5 13 3
-3 4 -12 1 -19z m550 -30 c-3 -8 -6 -5 -6 6 -1 11 2 17 5 13 3 -3 4 -12 1 -19z
m-560 -35 c-3 -10 -5 -4 -5 12 0 17 2 24 5 18 2 -7 2 -21 0 -30z m570 -55 c-3
-8 -6 -5 -6 6 -1 11 2 17 5 13 3 -3 4 -12 1 -19z m-410 -40 c-3 -8 -6 -5 -6 6
-1 11 2 17 5 13 3 -3 4 -12 1 -19z m-160 -30 c-3 -7 -5 -2 -5 12 0 14 2 19 5
13 2 -7 2 -19 0 -25z m523 -232 c0 -2 -8 -10 -17 -17 -16 -13 -17 -12 -4 4 13
16 21 21 21 13z"/>
<path d="M9020 4415 l0 -525 95 0 95 0 0 250 c0 234 1 254 21 291 37 74 154
101 227 53 49 -32 55 -69 58 -339 l3 -250 96 -3 95 -3 0 260 c0 154 -5 282
-11 313 -13 61 -36 111 -48 104 -4 -3 -19 7 -32 22 l-24 27 28 -24 c15 -14 27
-20 27 -14 0 18 -56 60 -104 78 -59 23 -215 17 -264 -9 -18 -9 -30 -21 -27
-26 3 -6 -1 -7 -9 -4 -9 3 -16 1 -16 -5 0 -6 -4 -11 -10 -11 -6 0 -10 63 -10
170 l0 170 -95 0 -95 0 0 -525z m177 473 c-3 -7 -5 -2 -5 12 0 14 2 19 5 13 2
-7 2 -19 0 -25z m113 -248 c0 -5 -5 -10 -11 -10 -5 0 -7 5 -4 10 3 6 8 10 11
10 2 0 4 -4 4 -10z m387 -332 c-3 -7 -5 -2 -5 12 0 14 2 19 5 13 2 -7 2 -19 0
-25z m0 -40 c-3 -8 -6 -5 -6 6 -1 11 2 17 5 13 3 -3 4 -12 1 -19z m0 -80 c-3
-8 -6 -5 -6 6 -1 11 2 17 5 13 3 -3 4 -12 1 -19z m0 -210 c-3 -8 -6 -5 -6 6
-1 11 2 17 5 13 3 -3 4 -12 1 -19z m0 -50 c-3 -7 -5 -2 -5 12 0 14 2 19 5 13
2 -7 2 -19 0 -25z"/>
<path d="M9840 4415 l0 -525 95 0 95 0 0 38 c1 30 3 34 11 20 5 -10 31 -30 57
-45 43 -26 56 -28 147 -28 82 0 107 4 140 21 22 12 40 26 40 32 0 6 4 14 9 19
5 5 6 3 2 -4 -12 -22 9 -14 33 11 13 14 20 29 16 36 -3 6 -1 9 6 8 7 -2 25 21
40 51 60 118 59 323 -2 448 -53 109 -158 173 -287 174 -78 1 -125 -9 -115 -24
3 -6 1 -7 -5 -3 -14 9 -50 -10 -74 -38 -9 -12 -18 -16 -18 -11 -1 6 0 85 0
178 l1 167 -96 0 -95 0 0 -525z m167 493 c-3 -8 -6 -5 -6 6 -1 11 2 17 5 13 3
-3 4 -12 1 -19z m-144 -8 c-3 -11 -7 -20 -9 -20 -2 0 -4 9 -4 20 0 11 4 20 9
20 5 0 7 -9 4 -20z m612 -340 c10 -11 16 -20 13 -20 -3 0 -13 9 -23 20 -10 11
-16 20 -13 20 3 0 13 -9 23 -20z m-200 -69 c52 -24 70 -45 90 -108 22 -68 17
-202 -9 -256 -30 -60 -77 -91 -150 -95 -51 -3 -66 0 -95 20 -64 43 -76 77 -76
213 0 112 2 123 27 165 45 77 127 101 213 61z m-418 -73 c-3 -8 -6 -5 -6 6 -1
11 2 17 5 13 3 -3 4 -12 1 -19z m540 -215 c-3 -10 -5 -4 -5 12 0 17 2 24 5 18
2 -7 2 -21 0 -30z m-540 -195 c-3 -8 -6 -5 -6 6 -1 11 2 17 5 13 3 -3 4 -12 1
-19z m8 -98 c3 -5 1 -10 -4 -10 -6 0 -11 5 -11 10 0 6 2 10 4 10 3 0 8 -4 11
-10z"/>
<path d="M13390 4764 l0 -177 -23 21 c-70 66 -223 86 -323 43 -59 -26 -130
-93 -119 -112 5 -8 4 -10 -3 -5 -15 9 -56 -74 -71 -142 -16 -76 -14 -219 5
-281 18 -63 39 -98 88 -151 53 -58 106 -81 195 -87 94 -7 146 7 206 52 53 41
55 41 55 16 0 -47 7 -51 102 -51 82 0 89 2 82 18 -5 9 -10 244 -11 522 l-3
505 -90 3 -90 3 0 -177z m17 69 c-2 -21 -4 -6 -4 32 0 39 2 55 4 38 2 -18 2
-50 0 -70z m150 -130 c-2 -21 -4 -6 -4 32 0 39 2 55 4 38 2 -18 2 -50 0 -70z
m-150 25 c-3 -7 -5 -2 -5 12 0 14 2 19 5 13 2 -7 2 -19 0 -25z m150 -210 c-3
-7 -5 -2 -5 12 0 14 2 19 5 13 2 -7 2 -19 0 -25z m-285 -7 c-10 -6 -8 -10 11
-15 34 -8 84 -67 96 -113 15 -53 13 -190 -3 -236 -18 -48 -41 -74 -88 -98 -72
-37 -162 -19 -212 42 -17 21 -26 26 -22 14 4 -11 3 -16 -1 -11 -4 4 -9 20 -10
34 -1 15 -5 62 -9 104 -15 167 44 258 181 278 71 11 71 11 57 1z m-415 -203
c-3 -7 -5 -2 -5 12 0 14 2 19 5 13 2 -7 2 -19 0 -25z m700 -35 c-3 -10 -5 -4
-5 12 0 17 2 24 5 18 2 -7 2 -21 0 -30z m-700 -25 c-3 -7 -5 -2 -5 12 0 14 2
19 5 13 2 -7 2 -19 0 -25z m160 -40 c-2 -13 -4 -3 -4 22 0 25 2 35 4 23 2 -13
2 -33 0 -45z m540 -30 c-2 -13 -4 -5 -4 17 -1 22 1 32 4 23 2 -10 2 -28 0 -40z
m-150 10 c-3 -7 -5 -2 -5 12 0 14 2 19 5 13 2 -7 2 -19 0 -25z m-550 -10 c-3
-8 -6 -5 -6 6 -1 11 2 17 5 13 3 -3 4 -12 1 -19z m700 -140 c-3 -7 -5 -2 -5
12 0 14 2 19 5 13 2 -7 2 -19 0 -25z m-300 -24 c-3 -3 -12 -4 -19 -1 -8 3 -5
6 6 6 11 1 17 -2 13 -5z m290 -110 c-3 -3 -12 -4 -19 -1 -8 3 -5 6 6 6 11 1
17 -2 13 -5z m-450 -10 c-3 -3 -12 -4 -19 -1 -8 3 -5 6 6 6 11 1 17 -2 13 -5z"/>
<path d="M7652 4651 c-94 -32 -158 -105 -177 -198 l-7 -33 96 0 95 0 16 34
c20 42 51 56 121 56 94 0 144 -41 144 -117 l0 -43 -111 0 c-242 0 -355 -71
-367 -229 -6 -87 8 -128 60 -180 56 -55 116 -74 221 -69 85 3 157 30 194 70
24 27 33 22 33 -17 l0 -35 95 0 c52 0 95 2 95 4 0 3 -5 17 -11 33 -6 15 -14
143 -18 283 -7 236 -9 259 -30 302 -13 26 -30 53 -39 60 -13 11 -14 11 -7 -1
5 -10 4 -12 -4 -7 -6 4 -9 11 -6 16 8 14 -59 57 -115 74 -74 22 -210 21 -278
-3z m166 2 c-10 -2 -26 -2 -35 0 -10 3 -2 5 17 5 19 0 27 -2 18 -5z m289 -215
c-3 -8 -6 -5 -6 6 -1 11 2 17 5 13 3 -3 4 -12 1 -19z m-547 -161 c0 -2 -10
-12 -22 -23 l-23 -19 19 23 c18 21 26 27 26 19z m333 -24 c-18 -2 -48 -2 -65
0 -18 2 -4 4 32 4 36 0 50 -2 33 -4z m47 -70 c0 -63 -23 -113 -60 -133 -11 -6
-18 -15 -15 -20 3 -5 0 -12 -6 -16 -7 -4 -9 -3 -6 3 4 6 -20 8 -68 5 -69 -4
-75 -3 -99 21 -55 55 -24 150 56 175 54 17 70 20 136 21 l62 1 0 -57z m177 15
c-3 -7 -5 -2 -5 12 0 14 2 19 5 13 2 -7 2 -19 0 -25z m-640 -80 c-3 -7 -5 -2
-5 12 0 14 2 19 5 13 2 -7 2 -19 0 -25z m0 -60 c-3 -7 -5 -2 -5 12 0 14 2 19
5 13 2 -7 2 -19 0 -25z m640 10 c-3 -8 -6 -5 -6 6 -1 11 2 17 5 13 3 -3 4 -12
1 -19z"/>
<path d="M8434 4652 c-121 -43 -185 -146 -164 -263 8 -43 39 -94 58 -94 6 0
14 -4 19 -9 5 -6 2 -6 -7 -1 -13 7 -13 6 -2 -7 22 -27 102 -55 217 -77 127
-24 159 -42 163 -92 2 -27 -3 -40 -23 -59 -24 -22 -35 -25 -103 -25 -87 0
-122 16 -144 66 l-13 29 -93 0 -93 0 7 -37 c11 -59 20 -79 59 -121 54 -60 120
-85 241 -90 104 -4 222 17 209 38 -4 6 1 7 11 3 11 -4 15 -2 11 4 -4 6 1 10
10 9 10 0 18 4 18 11 0 6 4 15 9 20 5 5 6 3 2 -4 -10 -18 9 -16 24 2 6 8 9 19
5 25 -4 6 -1 9 7 8 22 -5 51 70 51 131 0 62 -25 133 -45 129 -7 -2 -12 4 -11
12 5 31 -61 60 -208 90 -183 38 -224 65 -185 125 20 31 83 48 144 39 35 -5 55
-15 79 -40 31 -33 33 -34 117 -34 47 0 86 4 86 9 0 22 -33 98 -56 128 -14 18
-49 45 -77 60 -46 24 -66 27 -162 30 -87 3 -121 0 -161 -15z m6 -16 c0 -2 -7
-7 -16 -10 -8 -3 -12 -2 -9 4 6 10 25 14 25 6z m-116 -81 c-9 -14 -18 -25 -21
-25 -5 0 5 18 20 38 17 22 18 13 1 -13z m563 -517 c-3 -8 -6 -5 -6 6 -1 11 2
17 5 13 3 -3 4 -12 1 -19z m-344 -155 c-7 -2 -21 -2 -30 0 -10 3 -4 5 12 5 17
0 24 -2 18 -5z"/>
<path d="M10893 4651 c-134 -49 -211 -155 -235 -321 -11 -70 -10 -93 4 -162
17 -80 62 -173 85 -173 6 0 15 -4 20 -9 5 -5 3 -6 -4 -2 -28 16 -11 -11 24
-38 67 -54 142 -77 248 -77 52 0 107 3 122 7 43 11 104 44 98 54 -3 5 0 12 6
16 8 4 9 3 5 -4 -12 -19 5 -14 41 14 99 75 150 271 112 434 -21 90 -96 207
-126 196 -7 -3 -12 0 -10 7 1 7 -25 25 -58 42 -54 27 -71 30 -170 33 -89 2
-120 -1 -162 -17z m210 -152 c91 -25 137 -106 137 -238 0 -171 -103 -266 -249
-231 -61 14 -114 68 -132 132 -17 64 -7 194 19 245 45 86 126 120 225 92z
m304 -121 c-3 -8 -6 -5 -6 6 -1 11 2 17 5 13 3 -3 4 -12 1 -19z m-730 -50 c-3
-8 -6 -5 -6 6 -1 11 2 17 5 13 3 -3 4 -12 1 -19z m740 -20 c-3 -7 -5 -2 -5 12
0 14 2 19 5 13 2 -7 2 -19 0 -25z m-580 -50 c-2 -13 -4 -3 -4 22 0 25 2 35 4
23 2 -13 2 -33 0 -45z m580 0 c-3 -7 -5 -2 -5 12 0 14 2 19 5 13 2 -7 2 -19 0
-25z m-740 -70 c-3 -8 -6 -5 -6 6 -1 11 2 17 5 13 3 -3 4 -12 1 -19z m446
-305 c-7 -2 -19 -2 -25 0 -7 3 -2 5 12 5 14 0 19 -2 13 -5z"/>
<path d="M11708 4654 c-47 -17 -128 -77 -128 -95 0 -6 6 -7 13 -3 7 4 9 3 4
-2 -5 -5 -14 -9 -20 -9 -11 0 -26 -35 -41 -97 l-6 -28 92 0 93 0 15 33 c20 42
52 57 125 57 88 0 122 -29 135 -117 l7 -43 -111 0 c-68 0 -136 -6 -171 -15
-63 -16 -142 -64 -137 -84 1 -6 -3 -10 -9 -9 -21 5 -51 -60 -56 -121 -6 -63
11 -136 29 -125 7 5 8 2 3 -5 -13 -22 64 -90 121 -107 63 -18 145 -20 203 -4
50 13 93 38 86 50 -3 4 3 14 13 21 15 13 16 12 3 -3 -16 -22 1 -24 19 -3 17
20 30 9 30 -26 l0 -29 96 0 c96 0 96 0 90 24 -17 67 -26 177 -26 318 0 86 -5
181 -11 210 -14 64 -46 131 -60 123 -5 -4 -8 -1 -7 7 2 7 -3 12 -9 11 -7 -2
-12 2 -10 9 1 6 -20 25 -46 42 -46 28 -55 30 -165 33 -89 2 -128 -1 -164 -13z
m109 -130 c-3 -3 -12 -4 -19 -1 -8 3 -5 6 6 6 11 1 17 -2 13 -5z m350 -261
c-2 -16 -4 -3 -4 27 0 30 2 43 4 28 2 -16 2 -40 0 -55z m-173 -49 c4 -16 0
-50 -10 -82 -15 -46 -25 -59 -63 -84 -41 -26 -53 -29 -108 -26 -81 5 -103 24
-103 88 0 38 5 53 26 73 37 37 94 54 190 56 59 1 62 0 68 -25z m173 -101 c-2
-21 -4 -4 -4 37 0 41 2 58 4 38 2 -21 2 -55 0 -75z"/>
<path d="M12392 4662 l-62 -3 2 -382 3 -382 93 -3 92 -3 0 179 c0 98 5 205 11
238 23 126 79 174 202 174 l67 0 0 95 0 95 -64 0 c-85 0 -160 -37 -190 -95
l-21 -40 -5 65 c-6 73 4 68 -128 62z m321 -169 c-7 -2 -19 -2 -25 0 -7 3 -2 5
12 5 14 0 19 -2 13 -5z"/>
</g>
</svg>
