<?xml version="1.0" standalone="no"?>
<!DOCTYPE svg PUBLIC "-//W3C//DTD SVG 20010904//EN"
 "http://www.w3.org/TR/2001/REC-SVG-20010904/DTD/svg10.dtd">
<svg version="1.0" xmlns="http://www.w3.org/2000/svg"
 width="1024.000000pt" height="1024.000000pt" viewBox="0 0 1024.000000 1024.000000"
 preserveAspectRatio="xMidYMid meet">

<g transform="translate(0.000000,1024.000000) scale(0.100000,-0.100000)"
fill="#000000" stroke="none">
<path d="M1970 6525 c0 -124 3 -225 6 -225 3 0 42 18 87 39 82 39 166 61 239
61 21 0 38 4 38 8 0 5 -26 33 -57 62 -32 29 -111 104 -175 167 -65 62 -122
113 -128 113 -6 0 -10 -79 -10 -225z"/>
<path d="M1700 6529 c0 -5 5 -7 10 -4 6 3 10 8 10 11 0 2 -4 4 -10 4 -5 0 -10
-5 -10 -11z"/>
<path d="M1428 6223 c17 -2 47 -2 65 0 17 2 3 4 -33 4 -36 0 -50 -2 -32 -4z"/>
<path d="M1618 6223 c12 -2 32 -2 45 0 12 2 2 4 -23 4 -25 0 -35 -2 -22 -4z"/>
<path d="M5070 5938 c-206 -29 -361 -128 -432 -278 -28 -58 -32 -77 -36 -175
-3 -96 -1 -118 18 -169 47 -123 154 -198 380 -266 308 -93 358 -111 383 -134
31 -29 36 -76 11 -100 -14 -15 -13 -16 6 -16 29 0 17 -16 -33 -41 -36 -19 -53
-21 -161 -17 -113 5 -292 38 -306 58 -3 4 -34 12 -69 19 -35 7 -100 25 -145
41 -44 16 -82 27 -84 26 -4 -5 -5 -299 0 -318 7 -31 50 -67 86 -74 24 -5 30
-9 20 -15 -7 -5 -8 -9 -2 -9 6 0 51 -7 100 -16 168 -30 312 -34 552 -15 124 9
164 16 209 36 30 14 60 25 65 25 5 0 31 9 57 21 65 28 134 112 165 201 63 180
34 353 -77 455 -78 72 -162 107 -450 189 -174 49 -229 72 -252 108 -19 29 -7
68 28 90 81 53 407 39 670 -29 l27 -7 0 170 c0 124 -3 172 -12 180 -18 14
-131 38 -266 56 -122 17 -347 19 -452 4z"/>
<path d="M6512 5803 c-170 -428 -385 -985 -416 -1080 -15 -45 -25 -87 -22 -92
4 -5 35 -13 71 -16 36 -4 65 -11 65 -16 0 -18 44 -31 116 -34 64 -2 74 -1 74
14 0 10 9 17 20 18 24 2 78 45 102 81 9 14 25 30 35 36 11 7 121 12 294 14
303 4 308 3 364 -57 28 -28 31 -29 154 -36 69 -3 160 -8 201 -10 42 -2 81 -1
87 3 13 8 -9 74 -96 287 -34 83 -130 326 -213 540 -83 215 -159 409 -169 433
l-18 42 -299 0 -299 0 -51 -127z m433 -478 c42 -115 79 -218 82 -227 5 -17 -8
-18 -166 -18 -145 0 -171 2 -171 15 0 8 34 108 75 222 42 115 78 214 81 222 3
9 8 11 13 5 5 -5 44 -103 86 -219z"/>
<path d="M7582 5738 l3 -193 232 -3 231 -2 4 -450 c2 -298 7 -453 14 -460 18
-18 334 -17 334 1 0 5 18 9 40 9 l40 0 1 43 c0 23 0 225 -1 450 l-1 407 241 0
240 0 -2 193 -3 192 -688 3 -687 2 2 -192z"/>
</g>
</svg>
